<mxfile host="app.diagrams.net" modified="2023-06-25T14:19:55.181Z" agent="Mozilla/5.0 (Windows NT 10.0; Win64; x64) AppleWebKit/537.36 (KHTML, like Gecko) Chrome/114.0.0.0 Safari/537.36" version="21.3.8" etag="GbcOFhgIWmvyYNKZPG5V" type="github">
  <diagram name="‫עמוד-1‬" id="Pcvhoxx2ViWLqpZ0MFCd">
    <mxGraphModel>
      <root>
        <mxCell id="0" />
        <mxCell id="1" parent="0" />
      </root>
    </mxGraphModel>
  </diagram>
</mxfile>
